<svg xmlns="http://www.w3.org/2000/svg" xmlns:xlink="http://www.w3.org/1999/xlink" version="1.1" data-diagram-type="SEQUENCE" style="width:896px;height:837px;background:#FFFFFF;" width="896px" height="837px" viewBox="0 0 896 837" zoomAndPan="magnify" preserveAspectRatio="none" contentStyleType="text/css"><?plantuml 1.2026.8?><defs/><g font-family="sans-serif" lengthAdjust="spacing"><g class="title" data-source-line="13"><text x="378.058" y="28.132" fill="#000" font-size="14" textLength="138.51" font-weight="700" font-family="Arial">SD08 — Duyệt vật tư</text></g><rect x="37.034" y="439.833" width="839.592" height="362.479" fill="none" style="stroke:#000;stroke-width:1.5;" rx="4" ry="4"/><g><title>Kh.ch h.ng</title><rect x="49.534" y="124.347" width="8" height="701.965" fill="#000" fill-opacity="0"/><line x1="53.034" y1="124.347" x2="53.034" y2="826.312" style="stroke:#181818;stroke-width:0.5;stroke-dasharray:5,5;"/></g><g><title>Giao di.n React</title><rect x="237.809" y="124.347" width="8" height="701.965" fill="#000" fill-opacity="0"/><line x1="241.309" y1="124.347" x2="241.309" y2="826.312" style="stroke:#181818;stroke-width:0.5;stroke-dasharray:5,5;"/></g><g><title>API . quotes.js</title><rect x="528.606" y="124.347" width="8" height="701.965" fill="#000" fill-opacity="0"/><line x1="532.106" y1="124.347" x2="532.106" y2="826.312" style="stroke:#181818;stroke-width:0.5;stroke-dasharray:5,5;"/></g><g><title></title><rect x="527.106" y="221.341" width="10" height="594.971" fill="#FFF" style="stroke:#181818;stroke-width:1;"/></g><g><title>SQL Server</title><rect x="814.945" y="124.347" width="8" height="701.965" fill="#000" fill-opacity="0"/><line x1="818.445" y1="124.347" x2="818.445" y2="826.312" style="stroke:#181818;stroke-width:0.5;stroke-dasharray:5,5;"/></g><text x="10" y="121.168" fill="#000" font-size="15" textLength="80.068" font-family="Arial">Khách hàng</text><ellipse cx="53.034" cy="55.599" rx="8" ry="8" fill="#E2E2F0" style="stroke:#181818;stroke-width:0.5;"/><path d="M53.034,63.599 L53.034,90.599 M40.034,71.599 L66.034,71.599 M53.034,90.599 L40.034,105.599 M53.034,90.599 L66.034,105.599" style="stroke:#181818;stroke-width:0.5;" fill="none"/><text x="184.527" y="121.168" fill="#000" font-size="15" textLength="107.563" font-family="Arial">Giao diện React</text><path d="M220.809,79.099 L220.809,103.099 M220.809,91.099 L237.809,91.099" style="stroke:#181818;stroke-width:0.5;" fill="none"/><ellipse cx="249.809" cy="91.099" rx="12" ry="12" fill="#E2E2F0" style="stroke:#181818;stroke-width:0.5;"/><text x="480.748" y="121.168" fill="#000" font-size="15" textLength="96.716" font-family="Arial">API / quotes.js</text><ellipse cx="532.106" cy="91.099" rx="12" ry="12" fill="#E2E2F0" style="stroke:#181818;stroke-width:0.5;"/><polygon points="528.106,79.099,534.106,74.099,532.106,79.099,534.106,84.099,528.106,79.099" fill="#181818" style="stroke:#181818;stroke-width:1;stroke-linejoin:miter;stroke-miterlimit:10;"/><text x="776.264" y="121.168" fill="#000" font-size="15" textLength="78.362" font-family="Arial">SQL Server</text><path d="M800.445,71.099 C800.445,61.099 818.445,61.099 818.445,61.099 C818.445,61.099 836.445,61.099 836.445,71.099 L836.445,97.099 C836.445,107.099 818.445,107.099 818.445,107.099 C818.445,107.099 800.445,107.099 800.445,97.099 L800.445,71.099" style="stroke:#181818;stroke-width:0.5;" fill="#E2E2F0"/><path d="M800.445,71.099 C800.445,81.099 818.445,81.099 818.445,81.099 C818.445,81.099 836.445,81.099 836.445,71.099" style="stroke:#181818;stroke-width:0.5;" fill="none"/><polygon points="229.309,151.596,239.309,155.596,229.309,159.596,233.309,155.596" fill="#345346" style="stroke:#345346;stroke-width:1;stroke-linejoin:miter;stroke-miterlimit:10;"/><line x1="53.034" y1="155.596" x2="235.309" y2="155.596" style="stroke:#345346;stroke-width:1;"/><text x="86.714" y="150.417" fill="#000" font-size="15" textLength="35.859" font-family="Arial">Nhập</text><text x="122.573" y="150.417" fill="#000" font-size="15" font-family="Arial"> </text><text x="126.741" y="150.417" fill="#000" font-size="15" textLength="15.842" font-family="Arial">và</text><text x="142.583" y="150.417" fill="#000" font-size="15" font-family="Arial"> </text><text x="146.75" y="150.417" fill="#000" font-size="15" textLength="23.342" font-family="Arial">xác</text><text x="170.093" y="150.417" fill="#000" font-size="15" font-family="Arial"> </text><text x="174.26" y="150.417" fill="#000" font-size="15" textLength="33.369" font-family="Arial">nhận</text><polygon points="515.106,217.341,525.106,221.341,515.106,225.341,519.106,221.341" fill="#345346" style="stroke:#345346;stroke-width:1;stroke-linejoin:miter;stroke-miterlimit:10;"/><line x1="241.309" y1="221.341" x2="521.106" y2="221.341" style="stroke:#345346;stroke-width:1;"/><text x="363.788" y="181.666" fill="#000" font-size="15" textLength="40.84" font-family="Arial">POST</text><text x="253.309" y="198.914" fill="#000" font-size="15" textLength="261.797" font-family="Arial">/orders/:id/material-quotes/:qid/decision</text><text x="265.383" y="216.163" fill="#000" font-size="15" textLength="59.202" font-family="Arial">decision,</text><text x="324.585" y="216.163" fill="#000" font-size="15" font-family="Arial"> </text><text x="328.752" y="216.163" fill="#000" font-size="15" textLength="58.374" font-family="Arial">reason?,</text><text x="387.126" y="216.163" fill="#000" font-size="15" font-family="Arial"> </text><text x="391.294" y="216.163" fill="#000" font-size="15" textLength="111.738" font-family="Arial">expectedVersion</text><line x1="537.106" y1="252.59" x2="579.106" y2="252.59" style="stroke:#345346;stroke-width:1;"/><line x1="579.106" y1="252.59" x2="579.106" y2="265.59" style="stroke:#345346;stroke-width:1;"/><line x1="538.106" y1="265.59" x2="579.106" y2="265.59" style="stroke:#345346;stroke-width:1;"/><polygon points="548.106,261.59,538.106,265.59,548.106,269.59,544.106,265.59" fill="#345346" style="stroke:#345346;stroke-width:1;stroke-linejoin:miter;stroke-miterlimit:10;"/><text x="544.106" y="247.411" fill="#000" font-size="15" textLength="34.988" font-family="Arial">JWT,</text><text x="579.094" y="247.411" fill="#000" font-size="15" font-family="Arial"> </text><text x="583.261" y="247.411" fill="#000" font-size="15" textLength="19.175" font-family="Arial">vai</text><text x="602.436" y="247.411" fill="#000" font-size="15" font-family="Arial"> </text><text x="606.604" y="247.411" fill="#000" font-size="15" textLength="21.672" font-family="Arial">trò,</text><text x="628.276" y="247.411" fill="#000" font-size="15" font-family="Arial"> </text><text x="632.443" y="247.411" fill="#000" font-size="15" textLength="25.847" font-family="Arial">Zod</text><polygon points="806.445,292.838,816.445,296.838,806.445,300.838,810.445,296.838" fill="#345346" style="stroke:#345346;stroke-width:1;stroke-linejoin:miter;stroke-miterlimit:10;"/><line x1="537.106" y1="296.838" x2="812.445" y2="296.838" style="stroke:#345346;stroke-width:1;"/><text x="575.02" y="291.66" fill="#000" font-size="15" textLength="46.677" font-family="Arial">BEGIN</text><text x="621.698" y="291.66" fill="#000" font-size="15" font-family="Arial"> </text><text x="625.865" y="291.66" fill="#000" font-size="15" textLength="40.833" font-family="Arial">TRAN</text><text x="666.698" y="291.66" fill="#000" font-size="15" font-family="Arial"> </text><text x="670.865" y="291.66" fill="#000" font-size="15" font-family="Arial">+</text><text x="679.625" y="291.66" fill="#000" font-size="15" font-family="Arial"> </text><text x="683.792" y="291.66" fill="#000" font-size="15" textLength="96.738" font-family="Arial">sp_getapplock</text><polygon points="548.106,324.087,538.106,328.087,548.106,332.087,544.106,328.087" fill="#345346" style="stroke:#345346;stroke-width:1;stroke-linejoin:miter;stroke-miterlimit:10;"/><line x1="542.106" y1="328.087" x2="817.445" y2="328.087" style="stroke:#345346;stroke-width:1;stroke-dasharray:2,2;"/><text x="614.802" y="322.908" fill="#000" font-size="15" textLength="25.042" font-family="Arial">Giữ</text><text x="639.843" y="322.908" fill="#000" font-size="15" font-family="Arial"> </text><text x="644.011" y="322.908" fill="#000" font-size="15" textLength="32.527" font-family="Arial">khóa</text><text x="676.538" y="322.908" fill="#000" font-size="15" font-family="Arial"> </text><text x="680.705" y="322.908" fill="#000" font-size="15" textLength="28.359" font-family="Arial">giao</text><text x="709.064" y="322.908" fill="#000" font-size="15" font-family="Arial"> </text><text x="713.232" y="322.908" fill="#000" font-size="15" textLength="27.517" font-family="Arial">dịch</text><polygon points="806.445,355.335,816.445,359.335,806.445,363.335,810.445,359.335" fill="#345346" style="stroke:#345346;stroke-width:1;stroke-linejoin:miter;stroke-miterlimit:10;"/><line x1="537.106" y1="359.335" x2="812.445" y2="359.335" style="stroke:#345346;stroke-width:1;"/><text x="576.459" y="354.157" fill="#000" font-size="15" textLength="26.675" font-family="Arial">Đọc</text><text x="603.134" y="354.157" fill="#000" font-size="15" font-family="Arial"> </text><text x="607.302" y="354.157" fill="#000" font-size="15" textLength="18.384" font-family="Arial">dữ</text><text x="625.686" y="354.157" fill="#000" font-size="15" font-family="Arial"> </text><text x="629.853" y="354.157" fill="#000" font-size="15" textLength="27.517" font-family="Arial">liệu;</text><text x="657.37" y="354.157" fill="#000" font-size="15" font-family="Arial"> </text><text x="661.538" y="354.157" fill="#000" font-size="15" textLength="31.67" font-family="Arial">kiểm</text><text x="693.208" y="354.157" fill="#000" font-size="15" font-family="Arial"> </text><text x="697.375" y="354.157" fill="#000" font-size="15" textLength="17.505" font-family="Arial">tra</text><text x="714.88" y="354.157" fill="#000" font-size="15" font-family="Arial"> </text><text x="719.047" y="354.157" fill="#000" font-size="15" textLength="28.359" font-family="Arial">điều</text><text x="747.407" y="354.157" fill="#000" font-size="15" font-family="Arial"> </text><text x="751.574" y="354.157" fill="#000" font-size="15" textLength="27.517" font-family="Arial">kiện</text><polygon points="548.106,386.584,538.106,390.584,548.106,394.584,544.106,390.584" fill="#345346" style="stroke:#345346;stroke-width:1;stroke-linejoin:miter;stroke-miterlimit:10;"/><line x1="542.106" y1="390.584" x2="817.445" y2="390.584" style="stroke:#345346;stroke-width:1;stroke-dasharray:2,2;"/><text x="608.77" y="385.405" fill="#000" font-size="15" textLength="20.874" font-family="Arial">Dữ</text><text x="629.644" y="385.405" fill="#000" font-size="15" font-family="Arial"> </text><text x="633.812" y="385.405" fill="#000" font-size="15" textLength="23.35" font-family="Arial">liệu</text><text x="657.161" y="385.405" fill="#000" font-size="15" font-family="Arial"> </text><text x="661.329" y="385.405" fill="#000" font-size="15" font-family="Arial">+</text><text x="670.089" y="385.405" fill="#000" font-size="15" font-family="Arial"> </text><text x="674.256" y="385.405" fill="#000" font-size="15" textLength="72.524" font-family="Arial">rowversion</text><path d="M490.336,407.584 L490.336,426.584 A4,4 0 0 0 494.336,430.584 L855.336,430.584 A4,4 0 0 0 859.336,426.584 L859.336,413.584 L849.336,403.584 L494.336,403.584 A4,4 0 0 0 490.336,407.584" style="stroke:#181818;stroke-width:0.5;" fill="#FFF8E6"/><path d="M849.336,403.584 L849.336,411.584 A2,2 0 0 0 851.336,413.584 L859.336,413.584 L849.336,403.584" style="stroke:#181818;stroke-width:0.5;" fill="#FFF8E6"/><text x="571.199" y="422.654" fill="#000" font-size="15" textLength="199.153" font-family="Arial">Đúng chủ đơn; phiếu Pending</text><path d="M41.034,439.833 L99.539,439.833 L99.539,449.081 L89.539,459.081 L37.034,459.081 L37.034,443.833 A4,4 0 0 1 41.034,439.833" style="stroke:#000;stroke-width:1.5;" fill="#EEE"/><rect x="37.034" y="439.833" width="839.592" height="362.479" fill="none" style="stroke:#000;stroke-width:1.5;" rx="4" ry="4"/><text x="52.034" y="454.902" fill="#000" font-size="15" textLength="17.505" font-weight="700" font-family="Arial">alt</text><text x="114.539" y="455.902" fill="#000" font-size="15" textLength="57.327" font-weight="700" font-family="Arial">[Hợp lệ]</text><polygon points="806.445,525.075,816.445,529.075,806.445,533.075,810.445,529.075" fill="#345346" style="stroke:#345346;stroke-width:1;stroke-linejoin:miter;stroke-miterlimit:10;"/><line x1="537.106" y1="529.075" x2="812.445" y2="529.075" style="stroke:#345346;stroke-width:1;"/><text x="546.606" y="489.399" fill="#000" font-size="15" textLength="60.842" font-family="Arial">UPDATE</text><text x="607.448" y="489.399" fill="#000" font-size="15" font-family="Arial"> </text><text x="611.616" y="489.399" fill="#000" font-size="15" textLength="34.189" font-family="Arial">trạng</text><text x="645.805" y="489.399" fill="#000" font-size="15" font-family="Arial"> </text><text x="649.973" y="489.399" fill="#000" font-size="15" textLength="24.185" font-family="Arial">thái</text><text x="674.157" y="489.399" fill="#000" font-size="15" font-family="Arial"> </text><text x="678.325" y="489.399" fill="#000" font-size="15" textLength="40.869" font-family="Arial">phiếu,</text><text x="719.194" y="489.399" fill="#000" font-size="15" font-family="Arial"> </text><text x="723.361" y="489.399" fill="#000" font-size="15" textLength="39.895" font-family="Arial">người</text><text x="763.256" y="489.399" fill="#000" font-size="15" font-family="Arial"> </text><text x="767.424" y="489.399" fill="#000" font-size="15" textLength="15.842" font-family="Arial">và</text><text x="783.266" y="489.399" fill="#000" font-size="15" font-family="Arial"> </text><text x="787.434" y="489.399" fill="#000" font-size="15" textLength="21.511" font-family="Arial">giờ</text><text x="659.428" y="506.648" fill="#000" font-size="15" textLength="36.694" font-family="Arial">duyệt</text><text x="564.873" y="523.896" fill="#000" font-size="15" textLength="34.189" font-family="Arial">Tăng</text><text x="599.062" y="523.896" fill="#000" font-size="15" font-family="Arial"> </text><text x="603.229" y="523.896" fill="#000" font-size="15" textLength="48.354" font-family="Arial">version</text><text x="651.584" y="523.896" fill="#000" font-size="15" font-family="Arial"> </text><text x="655.751" y="523.896" fill="#000" font-size="15" textLength="30.688" font-family="Arial">đơn;</text><text x="686.44" y="523.896" fill="#000" font-size="15" font-family="Arial"> </text><text x="690.607" y="523.896" fill="#000" font-size="15" textLength="37.537" font-family="Arial">thông</text><text x="728.144" y="523.896" fill="#000" font-size="15" font-family="Arial"> </text><text x="732.312" y="523.896" fill="#000" font-size="15" textLength="25.027" font-family="Arial">báo</text><text x="757.338" y="523.896" fill="#000" font-size="15" font-family="Arial"> </text><text x="761.506" y="523.896" fill="#000" font-size="15" textLength="29.172" font-family="Arial">KTV</text><polygon points="548.106,556.324,538.106,560.324,548.106,564.324,544.106,560.324" fill="#345346" style="stroke:#345346;stroke-width:1;stroke-linejoin:miter;stroke-miterlimit:10;"/><line x1="542.106" y1="560.324" x2="817.445" y2="560.324" style="stroke:#345346;stroke-width:1;stroke-dasharray:2,2;"/><text x="621.064" y="555.145" fill="#000" font-size="15" textLength="22.515" font-family="Arial">Kết</text><text x="643.579" y="555.145" fill="#000" font-size="15" font-family="Arial"> </text><text x="647.746" y="555.145" fill="#000" font-size="15" textLength="25.027" font-family="Arial">quả</text><text x="672.773" y="555.145" fill="#000" font-size="15" font-family="Arial"> </text><text x="676.94" y="555.145" fill="#000" font-size="15" textLength="24.185" font-family="Arial">cập</text><text x="701.125" y="555.145" fill="#000" font-size="15" font-family="Arial"> </text><text x="705.292" y="555.145" fill="#000" font-size="15" textLength="29.194" font-family="Arial">nhật</text><polygon points="806.445,587.572,816.445,591.572,806.445,595.572,810.445,591.572" fill="#345346" style="stroke:#345346;stroke-width:1;stroke-linejoin:miter;stroke-miterlimit:10;"/><line x1="537.106" y1="591.572" x2="812.445" y2="591.572" style="stroke:#345346;stroke-width:1;"/><text x="647.365" y="586.394" fill="#000" font-size="15" textLength="60.82" font-family="Arial">COMMIT</text><polygon points="252.309,618.821,242.309,622.821,252.309,626.821,248.309,622.821" fill="#345346" style="stroke:#345346;stroke-width:1;stroke-linejoin:miter;stroke-miterlimit:10;"/><line x1="246.309" y1="622.821" x2="526.106" y2="622.821" style="stroke:#345346;stroke-width:1;stroke-dasharray:2,2;"/><text x="277.959" y="617.642" fill="#000" font-size="15" textLength="54.221" font-family="Arial">200/201</text><text x="332.18" y="617.642" fill="#000" font-size="15" font-family="Arial"> </text><text x="336.347" y="617.642" fill="#000" font-size="15" font-family="Arial">+</text><text x="345.107" y="617.642" fill="#000" font-size="15" font-family="Arial"> </text><text x="349.275" y="617.642" fill="#000" font-size="15" textLength="18.384" font-family="Arial">dữ</text><text x="367.658" y="617.642" fill="#000" font-size="15" font-family="Arial"> </text><text x="371.826" y="617.642" fill="#000" font-size="15" textLength="23.35" font-family="Arial">liệu</text><text x="395.176" y="617.642" fill="#000" font-size="15" font-family="Arial"> </text><text x="399.343" y="617.642" fill="#000" font-size="15" font-family="Arial">+</text><text x="408.103" y="617.642" fill="#000" font-size="15" font-family="Arial"> </text><text x="412.27" y="617.642" fill="#000" font-size="15" textLength="48.354" font-family="Arial">version</text><text x="460.625" y="617.642" fill="#000" font-size="15" font-family="Arial"> </text><text x="464.792" y="617.642" fill="#000" font-size="15" textLength="25.664" font-family="Arial">mới</text><polygon points="64.034,667.318,54.034,671.318,64.034,675.318,60.034,671.318" fill="#345346" style="stroke:#345346;stroke-width:1;stroke-linejoin:miter;stroke-miterlimit:10;"/><line x1="58.034" y1="671.318" x2="240.309" y2="671.318" style="stroke:#345346;stroke-width:1;stroke-dasharray:2,2;"/><text x="65.034" y="648.891" fill="#000" font-size="15" textLength="64.211" font-family="Arial">Approved</text><text x="129.246" y="648.891" fill="#000" font-size="15" font-family="Arial"> </text><text x="133.413" y="648.891" fill="#000" font-size="15" textLength="32.527" font-family="Arial">hoặc</text><text x="165.94" y="648.891" fill="#000" font-size="15" font-family="Arial"> </text><text x="170.107" y="648.891" fill="#000" font-size="15" textLength="59.202" font-family="Arial">Rejected</text><text x="81.382" y="666.139" fill="#000" font-size="15" textLength="29.011" font-family="Arial">Đơn</text><text x="110.393" y="666.139" fill="#000" font-size="15" font-family="Arial"> </text><text x="114.561" y="666.139" fill="#000" font-size="15" textLength="24.185" font-family="Arial">vẫn</text><text x="138.745" y="666.139" fill="#000" font-size="15" font-family="Arial"> </text><text x="142.913" y="666.139" fill="#000" font-size="15" textLength="70.049" font-family="Arial">DangXuLy</text><line x1="37.034" y1="680.318" x2="876.626" y2="680.318" style="stroke:#000;stroke-width:1;stroke-dasharray:2,2;"/><text x="42.034" y="696.388" fill="#000" font-size="15" textLength="117.495" font-weight="700" font-family="Arial">[Nhánh ngoại lệ]</text><path d="M490.336,711.566 L490.336,730.566 A4,4 0 0 0 494.336,734.566 L855.336,734.566 A4,4 0 0 0 859.336,730.566 L859.336,717.566 L849.336,707.566 L494.336,707.566 A4,4 0 0 0 490.336,711.566" style="stroke:#181818;stroke-width:0.5;" fill="#FFF8E6"/><path d="M849.336,707.566 L849.336,715.566 A2,2 0 0 0 851.336,717.566 L859.336,717.566 L849.336,707.566" style="stroke:#181818;stroke-width:0.5;" fill="#FFF8E6"/><text x="547.351" y="726.636" fill="#000" font-size="15" textLength="246.848" font-family="Arial">Sai quyền / đã quyết định → 404/409</text><polygon points="252.309,759.063,242.309,763.063,252.309,767.063,248.309,763.063" fill="#345346" style="stroke:#345346;stroke-width:1;stroke-linejoin:miter;stroke-miterlimit:10;"/><line x1="246.309" y1="763.063" x2="526.106" y2="763.063" style="stroke:#345346;stroke-width:1;stroke-dasharray:2,2;"/><text x="322.289" y="757.885" fill="#000" font-size="15" textLength="20.837" font-family="Arial">Mã</text><text x="343.126" y="757.885" fill="#000" font-size="15" font-family="Arial"> </text><text x="347.293" y="757.885" fill="#000" font-size="15" textLength="15.007" font-family="Arial">lỗi</text><text x="362.301" y="757.885" fill="#000" font-size="15" font-family="Arial"> </text><text x="366.468" y="757.885" fill="#000" font-size="15" font-family="Arial">+</text><text x="375.228" y="757.885" fill="#000" font-size="15" font-family="Arial"> </text><text x="379.396" y="757.885" fill="#000" font-size="15" textLength="37.537" font-family="Arial">thông</text><text x="416.932" y="757.885" fill="#000" font-size="15" font-family="Arial"> </text><text x="421.1" y="757.885" fill="#000" font-size="15" textLength="25.027" font-family="Arial">báo</text><polygon points="64.034,790.312,54.034,794.312,64.034,798.312,60.034,794.312" fill="#345346" style="stroke:#345346;stroke-width:1;stroke-linejoin:miter;stroke-miterlimit:10;"/><line x1="58.034" y1="794.312" x2="240.309" y2="794.312" style="stroke:#345346;stroke-width:1;stroke-dasharray:2,2;"/><text x="71.718" y="789.133" fill="#000" font-size="15" textLength="26.675" font-family="Arial">Giải</text><text x="98.392" y="789.133" fill="#000" font-size="15" font-family="Arial"> </text><text x="102.56" y="789.133" fill="#000" font-size="15" textLength="32.52" font-family="Arial">thích</text><text x="135.079" y="789.133" fill="#000" font-size="15" font-family="Arial"> </text><text x="139.247" y="789.133" fill="#000" font-size="15" textLength="15.842" font-family="Arial">và</text><text x="155.089" y="789.133" fill="#000" font-size="15" font-family="Arial"> </text><text x="159.257" y="789.133" fill="#000" font-size="15" textLength="24.185" font-family="Arial">cho</text><text x="183.441" y="789.133" fill="#000" font-size="15" font-family="Arial"> </text><text x="187.609" y="789.133" fill="#000" font-size="15" textLength="15.842" font-family="Arial">tải</text><text x="203.451" y="789.133" fill="#000" font-size="15" font-family="Arial"> </text><text x="207.618" y="789.133" fill="#000" font-size="15" textLength="15.007" font-family="Arial">lại</text><?plantuml-src TLHDRzD04BtxLup2aPIa9IsXbK0kQKfe6m992qALq6QzjRTnTjtrEcqvWP3WW91QXCG18H7rm04X420X9GSEZle_p2zXrcrQXuzJx7qpRzuylqtOuI8WYdIXJMZ7LJ8IpWtfImMx7jVC2izmXssHoDTLANITT1dOYXF_ttYJFs8mFPi1GuyuSfSB5xQ87sPfqubKAi4KbBCTR2TYWh8r5eR4PRRFNG6K2SrKfgfBzauBqfapvM86R12bEUK14NhnZ-KkB5MgLwh_AvRAOUgqy7AfN9ozcYcqbPAxP-3ivT9S1gnBpVwQLQrMoqjpbiST1bjIwhRSipJNFeDcfLY6NuzVGoNQJuRFDVIImISD-lYBHQZ6tjoA5_Uf1rxyNhWv827OLjjG4xKFkMLE93WSEmNSPTYHLgpNB8eVGKaVSdQZ1WNOYL1MU6axF65er2o7QD8c8ODSyyugD9dgCPM2bKNBXgbhI0BpKFTGJW2z-3tieGmGvbrOY665ePw7nkrc2mgfOM5XdZk5Bi4lXCcOEXbQcD_1GuTH7d8fDiNuAG-AaL2AwtbWUm6ZcZaRI868sPpta2KLQgQS3RjrhvM77k6WLVmr3m-aCyOhYmWlBYtNwj2wQzVX8eJ1GvTf4WI-f1qByQapccLqx3DqlFWR0JUrC1c-eDu4r-WW6Rwa1laCld4uMe0E_Zxjud02eqDyVXAbHy_597tbl0TrO5Xwfui9D0Galfd2F3ezEeW7U2Mebmm_8ELnNon0uF5ay3E21XCEtXSBVy0qMiJNS3CP7WNW8_M4sFL6nMujeR1aq4S-ZPdXOw8y2FVuIp9ynzFlwAAkT-2Sn6rJj4PFiU5Ku5W2zd_7qtRSbx3IsfZSRWL9DIOg6Hm1JUEHfa9F2BfnUssjrZev6eTffbWip1IdqH9dmg3ny6uoVClJR9bPs607WKAt7F1aClX1CU7RQKusnUW0TPgxyb50XGZtVhIwRp7yNy74ndtXuShOWXwaJlrbUnCJj6CSU2BmSemEuwFqrUmrEiGe8C6lPw-WL2mLIiMhvrzWOfqrx4BwDnnNo1YMNG1pDZZY1ls4LzYuJpq9EZtqZJv3RJai6_ZV?></g></svg>