<svg xmlns="http://www.w3.org/2000/svg" xmlns:xlink="http://www.w3.org/1999/xlink" version="1.1" data-diagram-type="SEQUENCE" style="width:912px;height:820px;background:#FFFFFF;" width="912px" height="820px" viewBox="0 0 912 820" zoomAndPan="magnify" preserveAspectRatio="none" contentStyleType="text/css"><?plantuml 1.2026.8?><defs/><g font-family="sans-serif" lengthAdjust="spacing"><g class="title" data-source-line="13"><text x="354.227" y="28.132" fill="#000" font-size="14" textLength="202.234" font-weight="700" font-family="Arial">SD09 — Lập phiếu nghiệm thu</text></g><rect x="40.359" y="457.081" width="852.328" height="327.982" fill="none" style="stroke:#000;stroke-width:1.5;" rx="4" ry="4"/><g><title>K. thu.t vi.n</title><rect x="52.859" y="124.347" width="8" height="684.716" fill="#000" fill-opacity="0"/><line x1="56.359" y1="124.347" x2="56.359" y2="809.063" style="stroke:#181818;stroke-width:0.5;stroke-dasharray:5,5;"/></g><g><title>Giao di.n React</title><rect x="286.164" y="124.347" width="8" height="684.716" fill="#000" fill-opacity="0"/><line x1="289.664" y1="124.347" x2="289.664" y2="809.063" style="stroke:#181818;stroke-width:0.5;stroke-dasharray:5,5;"/></g><g><title>API . quotes.js</title><rect x="527.661" y="124.347" width="8" height="684.716" fill="#000" fill-opacity="0"/><line x1="531.161" y1="124.347" x2="531.161" y2="809.063" style="stroke:#181818;stroke-width:0.5;stroke-dasharray:5,5;"/></g><g><title></title><rect x="526.161" y="221.341" width="10" height="577.722" fill="#FFF" style="stroke:#181818;stroke-width:1;"/></g><g><title>SQL Server</title><rect x="831.007" y="124.347" width="8" height="684.716" fill="#000" fill-opacity="0"/><line x1="834.507" y1="124.347" x2="834.507" y2="809.063" style="stroke:#181818;stroke-width:0.5;stroke-dasharray:5,5;"/></g><text x="10" y="121.168" fill="#000" font-size="15" textLength="86.719" font-family="Arial">Kỹ thuật viên</text><ellipse cx="56.359" cy="55.599" rx="8" ry="8" fill="#E2E2F0" style="stroke:#181818;stroke-width:0.5;"/><path d="M56.359,63.599 L56.359,90.599 M43.359,71.599 L69.359,71.599 M56.359,90.599 L43.359,105.599 M56.359,90.599 L69.359,105.599" style="stroke:#181818;stroke-width:0.5;" fill="none"/><text x="232.882" y="121.168" fill="#000" font-size="15" textLength="107.563" font-family="Arial">Giao diện React</text><path d="M269.164,79.099 L269.164,103.099 M269.164,91.099 L286.164,91.099" style="stroke:#181818;stroke-width:0.5;" fill="none"/><ellipse cx="298.164" cy="91.099" rx="12" ry="12" fill="#E2E2F0" style="stroke:#181818;stroke-width:0.5;"/><text x="479.803" y="121.168" fill="#000" font-size="15" textLength="96.716" font-family="Arial">API / quotes.js</text><ellipse cx="531.161" cy="91.099" rx="12" ry="12" fill="#E2E2F0" style="stroke:#181818;stroke-width:0.5;"/><polygon points="527.161,79.099,533.161,74.099,531.161,79.099,533.161,84.099,527.161,79.099" fill="#181818" style="stroke:#181818;stroke-width:1;stroke-linejoin:miter;stroke-miterlimit:10;"/><text x="792.326" y="121.168" fill="#000" font-size="15" textLength="78.362" font-family="Arial">SQL Server</text><path d="M816.507,71.099 C816.507,61.099 834.507,61.099 834.507,61.099 C834.507,61.099 852.507,61.099 852.507,71.099 L852.507,97.099 C852.507,107.099 834.507,107.099 834.507,107.099 C834.507,107.099 816.507,107.099 816.507,97.099 L816.507,71.099" style="stroke:#181818;stroke-width:0.5;" fill="#E2E2F0"/><path d="M816.507,71.099 C816.507,81.099 834.507,81.099 834.507,81.099 C834.507,81.099 852.507,81.099 852.507,71.099" style="stroke:#181818;stroke-width:0.5;" fill="none"/><polygon points="277.664,151.596,287.664,155.596,277.664,159.596,281.664,155.596" fill="#345346" style="stroke:#345346;stroke-width:1;stroke-linejoin:miter;stroke-miterlimit:10;"/><line x1="56.359" y1="155.596" x2="283.664" y2="155.596" style="stroke:#345346;stroke-width:1;"/><text x="112.554" y="150.417" fill="#000" font-size="15" textLength="35.859" font-family="Arial">Nhập</text><text x="148.413" y="150.417" fill="#000" font-size="15" font-family="Arial"> </text><text x="152.581" y="150.417" fill="#000" font-size="15" textLength="15.842" font-family="Arial">và</text><text x="168.423" y="150.417" fill="#000" font-size="15" font-family="Arial"> </text><text x="172.59" y="150.417" fill="#000" font-size="15" textLength="23.342" font-family="Arial">xác</text><text x="195.933" y="150.417" fill="#000" font-size="15" font-family="Arial"> </text><text x="200.1" y="150.417" fill="#000" font-size="15" textLength="33.369" font-family="Arial">nhận</text><polygon points="514.161,217.341,524.161,221.341,514.161,225.341,518.161,221.341" fill="#345346" style="stroke:#345346;stroke-width:1;stroke-linejoin:miter;stroke-miterlimit:10;"/><line x1="289.664" y1="221.341" x2="520.161" y2="221.341" style="stroke:#345346;stroke-width:1;"/><text x="307.867" y="181.666" fill="#000" font-size="15" textLength="40.84" font-family="Arial">POST</text><text x="348.707" y="181.666" fill="#000" font-size="15" font-family="Arial"> </text><text x="352.875" y="181.666" fill="#000" font-size="15" textLength="155.083" font-family="Arial">/orders/:id/acceptances</text><text x="318.689" y="198.914" fill="#000" font-size="15" textLength="44.194" font-family="Arial">cause,</text><text x="362.883" y="198.914" fill="#000" font-size="15" font-family="Arial"> </text><text x="367.051" y="198.914" fill="#000" font-size="15" textLength="55.869" font-family="Arial">solution,</text><text x="422.92" y="198.914" fill="#000" font-size="15" font-family="Arial"> </text><text x="427.087" y="198.914" fill="#000" font-size="15" textLength="70.049" font-family="Arial">photoIds[],</text><text x="352.043" y="216.163" fill="#000" font-size="15" textLength="111.738" font-family="Arial">expectedVersion</text><line x1="536.161" y1="252.59" x2="578.161" y2="252.59" style="stroke:#345346;stroke-width:1;"/><line x1="578.161" y1="252.59" x2="578.161" y2="265.59" style="stroke:#345346;stroke-width:1;"/><line x1="537.161" y1="265.59" x2="578.161" y2="265.59" style="stroke:#345346;stroke-width:1;"/><polygon points="547.161,261.59,537.161,265.59,547.161,269.59,543.161,265.59" fill="#345346" style="stroke:#345346;stroke-width:1;stroke-linejoin:miter;stroke-miterlimit:10;"/><text x="543.161" y="247.411" fill="#000" font-size="15" textLength="34.988" font-family="Arial">JWT,</text><text x="578.149" y="247.411" fill="#000" font-size="15" font-family="Arial"> </text><text x="582.316" y="247.411" fill="#000" font-size="15" textLength="19.175" font-family="Arial">vai</text><text x="601.491" y="247.411" fill="#000" font-size="15" font-family="Arial"> </text><text x="605.659" y="247.411" fill="#000" font-size="15" textLength="21.672" font-family="Arial">trò,</text><text x="627.331" y="247.411" fill="#000" font-size="15" font-family="Arial"> </text><text x="631.499" y="247.411" fill="#000" font-size="15" textLength="25.847" font-family="Arial">Zod</text><polygon points="822.507,292.838,832.507,296.838,822.507,300.838,826.507,296.838" fill="#345346" style="stroke:#345346;stroke-width:1;stroke-linejoin:miter;stroke-miterlimit:10;"/><line x1="536.161" y1="296.838" x2="828.507" y2="296.838" style="stroke:#345346;stroke-width:1;"/><text x="582.579" y="291.66" fill="#000" font-size="15" textLength="46.677" font-family="Arial">BEGIN</text><text x="629.256" y="291.66" fill="#000" font-size="15" font-family="Arial"> </text><text x="633.424" y="291.66" fill="#000" font-size="15" textLength="40.833" font-family="Arial">TRAN</text><text x="674.256" y="291.66" fill="#000" font-size="15" font-family="Arial"> </text><text x="678.424" y="291.66" fill="#000" font-size="15" font-family="Arial">+</text><text x="687.183" y="291.66" fill="#000" font-size="15" font-family="Arial"> </text><text x="691.351" y="291.66" fill="#000" font-size="15" textLength="96.738" font-family="Arial">sp_getapplock</text><polygon points="547.161,324.087,537.161,328.087,547.161,332.087,543.161,328.087" fill="#345346" style="stroke:#345346;stroke-width:1;stroke-linejoin:miter;stroke-miterlimit:10;"/><line x1="541.161" y1="328.087" x2="833.507" y2="328.087" style="stroke:#345346;stroke-width:1;stroke-dasharray:2,2;"/><text x="622.36" y="322.908" fill="#000" font-size="15" textLength="25.042" font-family="Arial">Giữ</text><text x="647.402" y="322.908" fill="#000" font-size="15" font-family="Arial"> </text><text x="651.569" y="322.908" fill="#000" font-size="15" textLength="32.527" font-family="Arial">khóa</text><text x="684.096" y="322.908" fill="#000" font-size="15" font-family="Arial"> </text><text x="688.264" y="322.908" fill="#000" font-size="15" textLength="28.359" font-family="Arial">giao</text><text x="716.623" y="322.908" fill="#000" font-size="15" font-family="Arial"> </text><text x="720.791" y="322.908" fill="#000" font-size="15" textLength="27.517" font-family="Arial">dịch</text><polygon points="822.507,355.335,832.507,359.335,822.507,363.335,826.507,359.335" fill="#345346" style="stroke:#345346;stroke-width:1;stroke-linejoin:miter;stroke-miterlimit:10;"/><line x1="536.161" y1="359.335" x2="828.507" y2="359.335" style="stroke:#345346;stroke-width:1;"/><text x="584.018" y="354.157" fill="#000" font-size="15" textLength="26.675" font-family="Arial">Đọc</text><text x="610.693" y="354.157" fill="#000" font-size="15" font-family="Arial"> </text><text x="614.86" y="354.157" fill="#000" font-size="15" textLength="18.384" font-family="Arial">dữ</text><text x="633.244" y="354.157" fill="#000" font-size="15" font-family="Arial"> </text><text x="637.412" y="354.157" fill="#000" font-size="15" textLength="27.517" font-family="Arial">liệu;</text><text x="664.929" y="354.157" fill="#000" font-size="15" font-family="Arial"> </text><text x="669.096" y="354.157" fill="#000" font-size="15" textLength="31.67" font-family="Arial">kiểm</text><text x="700.766" y="354.157" fill="#000" font-size="15" font-family="Arial"> </text><text x="704.934" y="354.157" fill="#000" font-size="15" textLength="17.505" font-family="Arial">tra</text><text x="722.438" y="354.157" fill="#000" font-size="15" font-family="Arial"> </text><text x="726.606" y="354.157" fill="#000" font-size="15" textLength="28.359" font-family="Arial">điều</text><text x="754.965" y="354.157" fill="#000" font-size="15" font-family="Arial"> </text><text x="759.133" y="354.157" fill="#000" font-size="15" textLength="27.517" font-family="Arial">kiện</text><polygon points="547.161,386.584,537.161,390.584,547.161,394.584,543.161,390.584" fill="#345346" style="stroke:#345346;stroke-width:1;stroke-linejoin:miter;stroke-miterlimit:10;"/><line x1="541.161" y1="390.584" x2="833.507" y2="390.584" style="stroke:#345346;stroke-width:1;stroke-dasharray:2,2;"/><text x="616.329" y="385.405" fill="#000" font-size="15" textLength="20.874" font-family="Arial">Dữ</text><text x="637.203" y="385.405" fill="#000" font-size="15" font-family="Arial"> </text><text x="641.37" y="385.405" fill="#000" font-size="15" textLength="23.35" font-family="Arial">liệu</text><text x="664.72" y="385.405" fill="#000" font-size="15" font-family="Arial"> </text><text x="668.887" y="385.405" fill="#000" font-size="15" font-family="Arial">+</text><text x="677.647" y="385.405" fill="#000" font-size="15" font-family="Arial"> </text><text x="681.815" y="385.405" fill="#000" font-size="15" textLength="72.524" font-family="Arial">rowversion</text><path d="M489.392,407.584 L489.392,443.584 A4,4 0 0 0 493.392,447.584 L871.392,447.584 A4,4 0 0 0 875.392,443.584 L875.392,413.584 L865.392,403.584 L493.392,403.584 A4,4 0 0 0 489.392,407.584" style="stroke:#181818;stroke-width:0.5;" fill="#FFF8E6"/><path d="M865.392,403.584 L865.392,411.584 A2,2 0 0 0 867.392,413.584 L875.392,413.584 L865.392,403.584" style="stroke:#181818;stroke-width:0.5;" fill="#FFF8E6"/><text x="569.661" y="422.654" fill="#000" font-size="15" textLength="217.346" font-family="Arial">Đang sửa; ảnh thuộc thợ và đơn</text><text x="569.661" y="439.902" fill="#000" font-size="15" textLength="173.496" font-family="Arial">Không còn vật tư Pending</text><path d="M44.359,457.081 L102.864,457.081 L102.864,466.33 L92.864,476.33 L40.359,476.33 L40.359,461.081 A4,4 0 0 1 44.359,457.081" style="stroke:#000;stroke-width:1.5;" fill="#EEE"/><rect x="40.359" y="457.081" width="852.328" height="327.982" fill="none" style="stroke:#000;stroke-width:1.5;" rx="4" ry="4"/><text x="55.359" y="472.151" fill="#000" font-size="15" textLength="17.505" font-weight="700" font-family="Arial">alt</text><text x="117.864" y="473.151" fill="#000" font-size="15" textLength="57.327" font-weight="700" font-family="Arial">[Hợp lệ]</text><polygon points="822.507,525.075,832.507,529.075,822.507,533.075,826.507,529.075" fill="#345346" style="stroke:#345346;stroke-width:1;stroke-linejoin:miter;stroke-miterlimit:10;"/><line x1="536.161" y1="529.075" x2="828.507" y2="529.075" style="stroke:#345346;stroke-width:1;"/><text x="545.661" y="506.648" fill="#000" font-size="15" textLength="55.005" font-family="Arial">INSERT</text><text x="600.666" y="506.648" fill="#000" font-size="15" font-family="Arial"> </text><text x="604.833" y="506.648" fill="#000" font-size="15" textLength="115.898" font-family="Arial">PhieuNghiemThu</text><text x="720.732" y="506.648" fill="#000" font-size="15" font-family="Arial"> </text><text x="724.899" y="506.648" fill="#000" font-size="15" textLength="14.209" font-family="Arial">từ</text><text x="739.108" y="506.648" fill="#000" font-size="15" font-family="Arial"> </text><text x="743.276" y="506.648" fill="#000" font-size="15" textLength="20.017" font-family="Arial">giá</text><text x="763.293" y="506.648" fill="#000" font-size="15" font-family="Arial"> </text><text x="767.46" y="506.648" fill="#000" font-size="15" textLength="16.685" font-family="Arial">đã</text><text x="784.145" y="506.648" fill="#000" font-size="15" font-family="Arial"> </text><text x="788.313" y="506.648" fill="#000" font-size="15" textLength="36.694" font-family="Arial">duyệt</text><text x="566.51" y="523.896" fill="#000" font-size="15" textLength="28.352" font-family="Arial">Gắn</text><text x="594.862" y="523.896" fill="#000" font-size="15" font-family="Arial"> </text><text x="599.029" y="523.896" fill="#000" font-size="15" textLength="29.194" font-family="Arial">ảnh;</text><text x="628.223" y="523.896" fill="#000" font-size="15" font-family="Arial"> </text><text x="632.391" y="523.896" fill="#000" font-size="15" textLength="171.768" font-family="Arial">sp_ChuyenTrangThaiDon</text><polygon points="547.161,556.324,537.161,560.324,547.161,564.324,543.161,560.324" fill="#345346" style="stroke:#345346;stroke-width:1;stroke-linejoin:miter;stroke-miterlimit:10;"/><line x1="541.161" y1="560.324" x2="833.507" y2="560.324" style="stroke:#345346;stroke-width:1;stroke-dasharray:2,2;"/><text x="628.623" y="555.145" fill="#000" font-size="15" textLength="22.515" font-family="Arial">Kết</text><text x="651.137" y="555.145" fill="#000" font-size="15" font-family="Arial"> </text><text x="655.305" y="555.145" fill="#000" font-size="15" textLength="25.027" font-family="Arial">quả</text><text x="680.332" y="555.145" fill="#000" font-size="15" font-family="Arial"> </text><text x="684.499" y="555.145" fill="#000" font-size="15" textLength="24.185" font-family="Arial">cập</text><text x="708.684" y="555.145" fill="#000" font-size="15" font-family="Arial"> </text><text x="712.851" y="555.145" fill="#000" font-size="15" textLength="29.194" font-family="Arial">nhật</text><polygon points="822.507,587.572,832.507,591.572,822.507,595.572,826.507,591.572" fill="#345346" style="stroke:#345346;stroke-width:1;stroke-linejoin:miter;stroke-miterlimit:10;"/><line x1="536.161" y1="591.572" x2="828.507" y2="591.572" style="stroke:#345346;stroke-width:1;"/><text x="654.924" y="586.394" fill="#000" font-size="15" textLength="60.82" font-family="Arial">COMMIT</text><polygon points="300.664,618.821,290.664,622.821,300.664,626.821,296.664,622.821" fill="#345346" style="stroke:#345346;stroke-width:1;stroke-linejoin:miter;stroke-miterlimit:10;"/><line x1="294.664" y1="622.821" x2="525.161" y2="622.821" style="stroke:#345346;stroke-width:1;stroke-dasharray:2,2;"/><text x="301.664" y="617.642" fill="#000" font-size="15" textLength="54.221" font-family="Arial">200/201</text><text x="355.885" y="617.642" fill="#000" font-size="15" font-family="Arial"> </text><text x="360.052" y="617.642" fill="#000" font-size="15" font-family="Arial">+</text><text x="368.812" y="617.642" fill="#000" font-size="15" font-family="Arial"> </text><text x="372.979" y="617.642" fill="#000" font-size="15" textLength="18.384" font-family="Arial">dữ</text><text x="391.363" y="617.642" fill="#000" font-size="15" font-family="Arial"> </text><text x="395.531" y="617.642" fill="#000" font-size="15" textLength="23.35" font-family="Arial">liệu</text><text x="418.88" y="617.642" fill="#000" font-size="15" font-family="Arial"> </text><text x="423.048" y="617.642" fill="#000" font-size="15" font-family="Arial">+</text><text x="431.808" y="617.642" fill="#000" font-size="15" font-family="Arial"> </text><text x="435.975" y="617.642" fill="#000" font-size="15" textLength="48.354" font-family="Arial">version</text><text x="484.33" y="617.642" fill="#000" font-size="15" font-family="Arial"> </text><text x="488.497" y="617.642" fill="#000" font-size="15" textLength="25.664" font-family="Arial">mới</text><polygon points="67.359,650.069,57.359,654.069,67.359,658.069,63.359,654.069" fill="#345346" style="stroke:#345346;stroke-width:1;stroke-linejoin:miter;stroke-miterlimit:10;"/><line x1="61.359" y1="654.069" x2="288.664" y2="654.069" style="stroke:#345346;stroke-width:1;stroke-dasharray:2,2;"/><text x="68.359" y="648.891" fill="#000" font-size="15" textLength="109.219" font-family="Arial">ChoNghiemThu;</text><text x="177.578" y="648.891" fill="#000" font-size="15" font-family="Arial"> </text><text x="181.746" y="648.891" fill="#000" font-size="15" textLength="36.702" font-family="Arial">phiếu</text><text x="218.447" y="648.891" fill="#000" font-size="15" font-family="Arial"> </text><text x="222.615" y="648.891" fill="#000" font-size="15" textLength="55.049" font-family="Arial">Pending</text><line x1="40.359" y1="663.069" x2="892.688" y2="663.069" style="stroke:#000;stroke-width:1;stroke-dasharray:2,2;"/><text x="45.359" y="679.139" fill="#000" font-size="15" textLength="117.495" font-weight="700" font-family="Arial">[Nhánh ngoại lệ]</text><path d="M489.392,694.318 L489.392,713.318 A4,4 0 0 0 493.392,717.318 L871.392,717.318 A4,4 0 0 0 875.392,713.318 L875.392,700.318 L865.392,690.318 L493.392,690.318 A4,4 0 0 0 489.392,694.318" style="stroke:#181818;stroke-width:0.5;" fill="#FFF8E6"/><path d="M865.392,690.318 L865.392,698.318 A2,2 0 0 0 867.392,700.318 L875.392,700.318 L865.392,690.318" style="stroke:#181818;stroke-width:0.5;" fill="#FFF8E6"/><text x="541.126" y="709.388" fill="#000" font-size="15" textLength="274.417" font-family="Arial">Thiếu ảnh / chưa duyệt vật tư → 422/409</text><polygon points="300.664,741.815,290.664,745.815,300.664,749.815,296.664,745.815" fill="#345346" style="stroke:#345346;stroke-width:1;stroke-linejoin:miter;stroke-miterlimit:10;"/><line x1="294.664" y1="745.815" x2="525.161" y2="745.815" style="stroke:#345346;stroke-width:1;stroke-dasharray:2,2;"/><text x="345.993" y="740.636" fill="#000" font-size="15" textLength="20.837" font-family="Arial">Mã</text><text x="366.831" y="740.636" fill="#000" font-size="15" font-family="Arial"> </text><text x="370.998" y="740.636" fill="#000" font-size="15" textLength="15.007" font-family="Arial">lỗi</text><text x="386.006" y="740.636" fill="#000" font-size="15" font-family="Arial"> </text><text x="390.173" y="740.636" fill="#000" font-size="15" font-family="Arial">+</text><text x="398.933" y="740.636" fill="#000" font-size="15" font-family="Arial"> </text><text x="403.1" y="740.636" fill="#000" font-size="15" textLength="37.537" font-family="Arial">thông</text><text x="440.637" y="740.636" fill="#000" font-size="15" font-family="Arial"> </text><text x="444.804" y="740.636" fill="#000" font-size="15" textLength="25.027" font-family="Arial">báo</text><polygon points="67.359,773.063,57.359,777.063,67.359,781.063,63.359,777.063" fill="#345346" style="stroke:#345346;stroke-width:1;stroke-linejoin:miter;stroke-miterlimit:10;"/><line x1="61.359" y1="777.063" x2="288.664" y2="777.063" style="stroke:#345346;stroke-width:1;stroke-dasharray:2,2;"/><text x="97.557" y="771.885" fill="#000" font-size="15" textLength="26.675" font-family="Arial">Giải</text><text x="124.232" y="771.885" fill="#000" font-size="15" font-family="Arial"> </text><text x="128.4" y="771.885" fill="#000" font-size="15" textLength="32.52" font-family="Arial">thích</text><text x="160.919" y="771.885" fill="#000" font-size="15" font-family="Arial"> </text><text x="165.087" y="771.885" fill="#000" font-size="15" textLength="15.842" font-family="Arial">và</text><text x="180.929" y="771.885" fill="#000" font-size="15" font-family="Arial"> </text><text x="185.096" y="771.885" fill="#000" font-size="15" textLength="24.185" font-family="Arial">cho</text><text x="209.281" y="771.885" fill="#000" font-size="15" font-family="Arial"> </text><text x="213.448" y="771.885" fill="#000" font-size="15" textLength="15.842" font-family="Arial">tải</text><text x="229.291" y="771.885" fill="#000" font-size="15" font-family="Arial"> </text><text x="233.458" y="771.885" fill="#000" font-size="15" textLength="15.007" font-family="Arial">lại</text><?plantuml-src TLHDRnit4BtlhnWenogHejYEFu02icMvYcD5jJOfqAOeA2ujibgH6v8hspcrA90SWW1s4208UgdWMml3GTfBjOSUrl3_sFoI3bUoiahQ4vTyCszc7X_N38ICY2P3w14ww6iLos1BXKh38HUMUMQE1-o0nA5jAcdRPCYWhWK9_nllYgSCRYyNGCD9e0w5xCC12KsHDgz8bPPCmsenWps9cQHiZnb3-gmUYhu4ogHbkX0r94UpWBncRRLQ03j4Mq55HAJT_6Iu6zkDvjtc_mKh7J0z2xopj5fTNYi4rhLMXtDm-SxIIW5iAyi-gzLiDbUtLpmk0WO7IjcUElAii263RgEw1Xz-UWttiybv114NsUIV66GVFvBdGx0yzWYrI5BQpPA_tHu3BOn4-hii0J5Gztgk4j77KDeHH47WCYNiCypB8nwsF8ftebK8fNgd1HLu4cENvjQFPihGQNa1iQH738DIz-lxq6Lwn7GEDZQzEjpy4abW7TeyxtAK_WP7wPY2T7lf8OOHZdeTEW-wFbHo_KnbNGGLGYcBBC6BD8yb9R5XPJ0gZArGiem3AwjQWVdk-pAmeuXHou97c8gWcrkCY6LvWuvzNkJUDtuPHaI0rUdxCdohWckyiOdmvlPEgmt-VhqDNu29VkWpIw8eL7JW8NvpJhE3Ibt0WAT_4kZdqcN92yeNk2vFikGbTSW5X4xPU0C6kFw2TwC9N9xYzyznVlHSBj8tFkPW7-YPqMmmYUg3mfqBBAF2boS47uR9adEo0TdaJFByefEt5DSiESiLlpoz6ajlbwT_OInDtqiOvLQmL--WmsI0Ryl31HoxHq8BNs5c127MNvYerUvkx_lGuOB5RVGP6_ey1fibVw08wHZhf6SGnCUOPn_BdMno8QSzRJWjjtXypAIliM6V4z5GdmozY_wrQ33C09gx9JU9NMXXwy7UNikV7brxgrQjLchLswXKiA3RJ3GOPicl8hUQg-L8k9gtlp5_ENCby2U3Vat7gANigsmo5bCfFXFVdsLETQy0vLVloBK01Oq_F7i5IxLQPQcwzb7dXH7sK3YiyKPWstPwJxrqh8fDe-KcPyAXvvJdrqgvGl7TOUYQTDHUm8hU_nS0?></g></svg>