<svg xmlns="http://www.w3.org/2000/svg" xmlns:xlink="http://www.w3.org/1999/xlink" version="1.1" data-diagram-type="DESCRIPTION" style="width:644px;height:1072px;background:#FFFFFF;" width="644px" height="1072px" viewBox="0 0 644 1072" zoomAndPan="magnify" preserveAspectRatio="none" contentStyleType="text/css"><?plantuml 1.2026.8?><defs/><g font-family="sans-serif" lengthAdjust="spacing"><!--cluster HomeFix — Luồng sửa chữa chính--><g class="cluster" data-qualified-name="HomeFix . Lu.ng s.a ch.a ch.nh" id="ent0004" data-source-line="11"><rect x="181.5" y="106" width="281" height="952" fill="none" style="stroke:#181818;stroke-width:1;" rx="2.5" ry="2.5"/><text x="189.066" y="123.008" fill="#000" font-size="16" textLength="265.867" font-weight="700" font-family="Arial">HomeFix — Luồng sửa chữa chính</text></g><!--entity H01--><g class="entity" data-qualified-name="HomeFix . Lu.ng s.a ch.a ch.nh.H01" id="ent0005" data-source-line="12"><ellipse cx="322.042" cy="396.908" rx="80.042" ry="18.408" fill="#EDF7F0" style="stroke:#348059;stroke-width:0.5;"/><text x="260.237" y="402.608" fill="#000" font-size="16" textLength="123.609" font-family="Arial">HF01 Đặt dịch vụ</text></g><!--entity H02--><g class="entity" data-qualified-name="HomeFix . Lu.ng s.a ch.a ch.nh.H02" id="ent0006" data-source-line="13"><ellipse cx="322.196" cy="938.039" rx="100.696" ry="22.539" fill="#EDF7F0" style="stroke:#348059;stroke-width:0.5;"/><text x="236.005" y="943.739" fill="#000" font-size="16" textLength="172.383" font-family="Arial">HF02 Lập báo giá sơ bộ</text></g><!--entity H03--><g class="entity" data-qualified-name="HomeFix . Lu.ng s.a ch.a ch.nh.H03" id="ent0007" data-source-line="14"><ellipse cx="322.225" cy="470.945" rx="87.725" ry="19.945" fill="#EDF7F0" style="stroke:#348059;stroke-width:0.5;"/><text x="251.072" y="476.644" fill="#000" font-size="16" textLength="142.305" font-family="Arial">HF03 Duyệt báo giá</text></g><!--entity H04--><g class="entity" data-qualified-name="HomeFix . Lu.ng s.a ch.a ch.nh.H04" id="ent0008" data-source-line="15"><ellipse cx="321.783" cy="781.957" rx="90.283" ry="20.457" fill="#EDF7F0" style="stroke:#348059;stroke-width:0.5;"/><text x="247.603" y="787.656" fill="#000" font-size="16" textLength="148.359" font-family="Arial">HF04 Phân công thợ</text></g><!--entity H05--><g class="entity" data-qualified-name="HomeFix . Lu.ng s.a ch.a ch.nh.H05" id="ent0009" data-source-line="16"><ellipse cx="322.041" cy="549.108" rx="103.541" ry="23.108" fill="#EDF7F0" style="stroke:#348059;stroke-width:0.5;"/><text x="232.638" y="554.807" fill="#000" font-size="16" textLength="178.805" font-family="Arial">HF05 Nhận / từ chối lệnh</text></g><!--entity H06--><g class="entity" data-qualified-name="HomeFix . Lu.ng s.a ch.a ch.nh.H06" id="ent0010" data-source-line="17"><ellipse cx="322.211" cy="629.042" rx="95.711" ry="21.542" fill="#EDF7F0" style="stroke:#348059;stroke-width:0.5;"/><text x="241.715" y="634.741" fill="#000" font-size="16" textLength="160.992" font-family="Arial">HF06 Cập nhật tiến độ</text></g><!--entity H07--><g class="entity" data-qualified-name="HomeFix . Lu.ng s.a ch.a ch.nh.H07" id="ent0011" data-source-line="18"><ellipse cx="321.981" cy="706.096" rx="88.481" ry="20.096" fill="#EDF7F0" style="stroke:#348059;stroke-width:0.5;"/><text x="249.93" y="711.795" fill="#000" font-size="16" textLength="144.102" font-family="Arial">HF07 Đề xuất vật tư</text></g><!--entity H08--><g class="entity" data-qualified-name="HomeFix . Lu.ng s.a ch.a ch.nh.H08" id="ent0012" data-source-line="19"><ellipse cx="321.938" cy="161.988" rx="82.938" ry="18.988" fill="#EDF7F0" style="stroke:#348059;stroke-width:0.5;"/><text x="256.559" y="167.687" fill="#000" font-size="16" textLength="130.758" font-family="Arial">HF08 Duyệt vật tư</text></g><!--entity H09--><g class="entity" data-qualified-name="HomeFix . Lu.ng s.a ch.a ch.nh.H09" id="ent0013" data-source-line="20"><ellipse cx="322.138" cy="858.928" rx="92.638" ry="20.928" fill="#EDF7F0" style="stroke:#348059;stroke-width:0.5;"/><text x="245.201" y="864.627" fill="#000" font-size="16" textLength="153.875" font-family="Arial">HF09 Lập nghiệm thu</text></g><!--entity H10--><g class="entity" data-qualified-name="HomeFix . Lu.ng s.a ch.a ch.nh.H10" id="ent0014" data-source-line="21"><ellipse cx="322.209" cy="241.042" rx="110.709" ry="24.542" fill="#EDF7F0" style="stroke:#348059;stroke-width:0.5;"/><text x="224.815" y="246.741" fill="#000" font-size="16" textLength="194.789" font-family="Arial">HF10 Xác nhận nghiệm thu</text></g><!--entity H11--><g class="entity" data-qualified-name="HomeFix . Lu.ng s.a ch.a ch.nh.H11" id="ent0015" data-source-line="22"><ellipse cx="321.939" cy="1018.788" rx="101.939" ry="22.788" fill="#EDF7F0" style="stroke:#348059;stroke-width:0.5;"/><text x="234.342" y="1024.487" fill="#000" font-size="16" textLength="175.195" font-family="Arial">HF11 Ghi nhận thu COD</text></g><!--entity H12--><g class="entity" data-qualified-name="HomeFix . Lu.ng s.a ch.a ch.nh.H12" id="ent0016" data-source-line="23"><ellipse cx="321.978" cy="322.196" rx="96.478" ry="21.696" fill="#EDF7F0" style="stroke:#348059;stroke-width:0.5;"/><text x="240.599" y="327.895" fill="#000" font-size="16" textLength="162.758" font-family="Arial">HF12 Đánh giá dịch vụ</text></g><!--entity KH--><g class="entity" data-qualified-name="KH" id="ent0001" data-source-line="8"><ellipse cx="56.703" cy="291.5" rx="8" ry="8" fill="#F1F1F1" style="stroke:#181818;stroke-width:0.5;"/><path d="M56.703,299.5 L56.703,326.5 M43.703,307.5 L69.703,307.5 M56.703,326.5 L43.703,341.5 M56.703,326.5 L69.703,341.5" style="stroke:#181818;stroke-width:0.5;" fill="none"/><text x="14" y="358.008" fill="#000" font-size="16" textLength="85.406" font-family="Arial">Khách hàng</text></g><!--entity DPV--><g class="entity" data-qualified-name="DPV" id="ent0002" data-source-line="9"><ellipse cx="56.699" cy="829.5" rx="8" ry="8" fill="#F1F1F1" style="stroke:#181818;stroke-width:0.5;"/><path d="M56.699,837.5 L56.699,864.5 M43.699,845.5 L69.699,845.5 M56.699,864.5 L43.699,879.5 M56.699,864.5 L69.699,879.5" style="stroke:#181818;stroke-width:0.5;" fill="none"/><text x="6" y="896.008" fill="#000" font-size="16" textLength="101.398" font-family="Arial">Điều phối viên</text></g><!--entity KTV--><g class="entity" data-qualified-name="KTV" id="ent0003" data-source-line="10"><ellipse cx="583.25" cy="675.5" rx="8" ry="8" fill="#F1F1F1" style="stroke:#181818;stroke-width:0.5;"/><path d="M583.25,683.5 L583.25,710.5 M570.25,691.5 L596.25,691.5 M583.25,710.5 L570.25,725.5 M583.25,710.5 L596.25,725.5" style="stroke:#181818;stroke-width:0.5;" fill="none"/><text x="537" y="742.008" fill="#000" font-size="16" textLength="92.5" font-family="Arial">Kỹ thuật viên</text></g><g class="entity" data-qualified-name="GMN29" id="ent0030" data-source-line="37"><path d="M167,6 L167,89.594 L476.969,89.594 L476.969,16 L466.969,6 L167,6" style="stroke:#181818;stroke-width:0.5;" fill="#FEFFDD"/><path d="M466.969,6 L466.969,16 L476.969,16 L466.969,6" style="stroke:#181818;stroke-width:1;" fill="#FEFFDD"/><text x="173" y="26.008" fill="#000" font-size="16" textLength="263.898" font-family="Arial">Đường nối thể hiện quyền tương tác.</text><text x="173" y="44.406" fill="#000" font-size="16" textLength="272.977" font-family="Arial">Thứ tự/điều kiện giữa use case nằm ở</text><text x="173" y="62.805" fill="#000" font-size="16" textLength="272.086" font-family="Arial">đặc tả và lược đồ tuần tự, không dùng</text><text x="173" y="81.203" fill="#000" font-size="16" textLength="288.969" font-family="Arial">include/extend để mô tả thứ tự thời gian.</text></g><!--link KH to H01--><g class="link" data-entity-1="ent0001" data-entity-2="ent0005" id="lnk17" data-source-line="25" data-link-type="dependency"><path d="M99.26,338.12 C119.53,345.62 144.35,354.34 167,361 C197.95,370.1 228.047,377.353 256.847,383.703" style="stroke:#181818;stroke-width:1;" fill="none" id="KH-to-H01"/><polygon points="261.73,384.78,253.802,378.936,256.847,383.703,252.08,386.748,261.73,384.78" fill="#181818" style="stroke:#181818;stroke-width:1;stroke-linejoin:miter;stroke-miterlimit:10;"/></g><!--link KH to H03--><g class="link" data-entity-1="ent0001" data-entity-2="ent0007" id="lnk18" data-source-line="26" data-link-type="dependency"><path d="M86.7,361.11 C106.73,385.28 135.35,415 167,433 C190.94,446.61 214.783,454.335 240.913,459.975" style="stroke:#181818;stroke-width:1;" fill="none" id="KH-to-H03"/><polygon points="245.8,461.03,237.847,455.221,240.913,459.975,236.159,463.041,245.8,461.03" fill="#181818" style="stroke:#181818;stroke-width:1;stroke-linejoin:miter;stroke-miterlimit:10;"/></g><!--link KH to H08--><g class="link" data-entity-1="ent0001" data-entity-2="ent0012" id="lnk19" data-source-line="27" data-link-type="dependency"><path d="M82.58,282.96 C102.29,255.42 132.17,219.86 167,199 C191.18,184.52 215.788,176.685 242.468,171.325" style="stroke:#181818;stroke-width:1;" fill="none" id="KH-to-H08"/><polygon points="247.37,170.34,237.758,168.191,242.468,171.325,239.334,176.034,247.37,170.34" fill="#181818" style="stroke:#181818;stroke-width:1;stroke-linejoin:miter;stroke-miterlimit:10;"/></g><!--link KH to H10--><g class="link" data-entity-1="ent0001" data-entity-2="ent0014" id="lnk20" data-source-line="28" data-link-type="dependency"><path d="M99.11,306.34 C119.45,298.9 144.38,290.1 167,283 C193.57,274.66 218.191,267.685 244.151,260.725" style="stroke:#181818;stroke-width:1;" fill="none" id="KH-to-H10"/><polygon points="248.98,259.43,239.251,257.897,244.151,260.725,241.323,265.624,248.98,259.43" fill="#181818" style="stroke:#181818;stroke-width:1;stroke-linejoin:miter;stroke-miterlimit:10;"/></g><!--link KH to H12--><g class="link" data-entity-1="ent0001" data-entity-2="ent0016" id="lnk21" data-source-line="29" data-link-type="dependency"><path d="M99.25,322 C133.06,322 177.03,322 220.35,322" style="stroke:#181818;stroke-width:1;" fill="none" id="KH-to-H12"/><polygon points="225.35,322,216.35,318,220.35,322,216.35,326,225.35,322" fill="#181818" style="stroke:#181818;stroke-width:1;stroke-linejoin:miter;stroke-miterlimit:10;"/></g><!--link DPV to H02--><g class="link" data-entity-1="ent0002" data-entity-2="ent0006" id="lnk22" data-source-line="30" data-link-type="dependency"><path d="M107.16,877.55 C125.83,883.94 147.31,891.06 167,897 C195.47,905.59 222.352,912.939 249.562,920.029" style="stroke:#181818;stroke-width:1;" fill="none" id="DPV-to-H02"/><polygon points="254.4,921.29,246.699,915.15,249.562,920.029,244.682,922.891,254.4,921.29" fill="#181818" style="stroke:#181818;stroke-width:1;stroke-linejoin:miter;stroke-miterlimit:10;"/></g><!--link DPV to H04--><g class="link" data-entity-1="ent0002" data-entity-2="ent0008" id="lnk23" data-source-line="31" data-link-type="dependency"><path d="M107.27,840.53 C125.86,833.6 147.25,826.02 167,820 C196.11,811.12 223.914,803.981 251.644,797.421" style="stroke:#181818;stroke-width:1;" fill="none" id="DPV-to-H04"/><polygon points="256.51,796.27,246.831,794.449,251.644,797.421,248.673,802.234,256.51,796.27" fill="#181818" style="stroke:#181818;stroke-width:1;stroke-linejoin:miter;stroke-miterlimit:10;"/></g><!--reverse link H05 to KTV--><g class="link" data-entity-1="ent0009" data-entity-2="ent0003" id="lnk24" data-source-line="32" data-link-type="dependency"><path d="M412.102,563.458 C435.802,569.568 455.98,577.18 477,590 C508.89,609.45 536.81,641.47 555.83,666.95" style="stroke:#181818;stroke-width:1;" fill="none" id="H05-backto-KTV"/><polygon points="407.26,562.21,414.976,568.33,412.102,563.458,416.974,560.583,407.26,562.21" fill="#181818" style="stroke:#181818;stroke-width:1;stroke-linejoin:miter;stroke-miterlimit:10;"/></g><!--reverse link H06 to KTV--><g class="link" data-entity-1="ent0010" data-entity-2="ent0003" id="lnk25" data-source-line="33" data-link-type="dependency"><path d="M394.206,645.46 C421.516,652.15 448.52,659.26 477,668 C496.83,674.08 518.43,681.72 536.85,688.55" style="stroke:#181818;stroke-width:1;" fill="none" id="H06-backto-KTV"/><polygon points="389.35,644.27,397.14,650.297,394.206,645.46,399.043,642.526,389.35,644.27" fill="#181818" style="stroke:#181818;stroke-width:1;stroke-linejoin:miter;stroke-miterlimit:10;"/></g><!--reverse link H07 to KTV--><g class="link" data-entity-1="ent0011" data-entity-2="ent0003" id="lnk26" data-source-line="34" data-link-type="dependency"><path d="M415.69,706 C458.1,706 502.21,706 536.95,706" style="stroke:#181818;stroke-width:1;" fill="none" id="H07-backto-KTV"/><polygon points="410.69,706,419.69,710,415.69,706,419.69,702,410.69,706" fill="#181818" style="stroke:#181818;stroke-width:1;stroke-linejoin:miter;stroke-miterlimit:10;"/></g><!--reverse link H09 to KTV--><g class="link" data-entity-1="ent0013" data-entity-2="ent0003" id="lnk27" data-source-line="35" data-link-type="dependency"><path d="M406.493,847.102 C431.783,841.302 454.25,833.55 477,820 C508.55,801.2 536.31,770.04 555.35,745.04" style="stroke:#181818;stroke-width:1;" fill="none" id="H09-backto-KTV"/><polygon points="401.62,848.22,411.286,850.107,406.493,847.102,409.498,842.309,401.62,848.22" fill="#181818" style="stroke:#181818;stroke-width:1;stroke-linejoin:miter;stroke-miterlimit:10;"/></g><!--reverse link H11 to KTV--><g class="link" data-entity-1="ent0015" data-entity-2="ent0003" id="lnk28" data-source-line="36" data-link-type="dependency"><path d="M419.535,1008.06 C441.995,1001.96 459.7,993.52 477,978 C545.76,916.31 569.84,804.34 578.01,745.13" style="stroke:#181818;stroke-width:1;" fill="none" id="H11-backto-KTV"/><polygon points="414.71,1009.37,424.444,1010.871,419.535,1008.06,422.347,1003.151,414.71,1009.37" fill="#181818" style="stroke:#181818;stroke-width:1;stroke-linejoin:miter;stroke-miterlimit:10;"/></g><!--link H12 to GMN29--><g class="link" data-entity-1="ent0016" data-entity-2="ent0030" id="lnk31" data-source-line="37" data-link-type="association"><path d="M226.11,318.72 C190.81,311.92 155.06,296.95 137,265.5 C110.22,218.87 110.22,191.13 137,144.5 C150.26,121.41 171.16,103.63 194.21,90" style="stroke:#181818;stroke-width:1;stroke-dasharray:7,7;" fill="none" id="H12-GMN29"/></g><?plantuml-src RPFFJnD15CVl-rUyrAk5RbjeQuo9KciJ2990Y0Skm-vqPzBjRDsTHT2OI3Xmy0B1YmSYbH2ZXWW92Q5xyB1D_u_nB_7jTFjZbLDVCvytyttVzrsNjYH83tpkC0aszwabkIUCeCr5b_Ya0pPjaT2L3K_8LTAXyDJdnBt_V9s_fM0kpXm6ZDZU6ouSQ14te3CdNMArYKFNvPvB8NcL2CUT1SA0MYIWpv1pV2yKzfBdUZuyU5vlL1g5Uq3FjwcVGgLojR1GCuWbyLzkcSKzYm6BpuIJ0nB0SdDyD3ZYAjeFeSjKTCnXXyS_X4RgQvkJTXNTWMIXwb_A6M9vOzEO28TSq-lG1j-5Fny-mKgeeXCSEb3H9G4Bx_wL_CINWkNWdJ6MZ4sDWWc38zM_HVDLz15LxgZeGj_VB9XPiWWhAA4Bst7F0uV7FGY6FTXMqUUKBsRv4jJ3FHKTocb72fQoO1dMMFnLW1NVe6Y9SizJi9m55s2LeGG1yo1Lz5DFXgwv-4WocMvPoBOimf8MBPYsJtBL_orWS3nLlPXjg2H-HFkmYtvVeD-Zjk5LIbUoT7KouxzWDGlMKlE4mt3ZXvraeIbPov1c0LvXN4Q2nJsyMSZo9hnWV8mZ1KilwocPNQ1PnD7Ydc2ZvVstRxDel3UMcv3FFz7BdvIbQLcTb2XZKXODZ6jApDPb0_S1Z_Dv7LQqUgQkpDIrQOtZZ6lXIGhRdfHU1xnMyWmymWc6LoewnPm8lViaBGUWFHBmEjd5laYsCEmbKK8ZvxR41ZBVayHSpm-EHzzRUzJWSFrfe4cWNHAgVzq15NtP4XYH_gs5NVrps8dFm4tUFRTqT4v0OZg-2NtdGsWp7LmxlXFEbk32SaERpjDTIOMj-GFen3UZg-H4YovFEMeWOkul?></g></svg>